<?xml version="1.0" encoding="UTF-8"?>
<svg width="44px" height="44px" viewBox="0 0 44 44" version="1.1" xmlns="http://www.w3.org/2000/svg" xmlns:xlink="http://www.w3.org/1999/xlink">
    <title>ico_bottom_tab_publisher</title>
    <defs>
        <linearGradient x1="50%" y1="100%" x2="50%" y2="0%" id="linearGradient-1">
            <stop stop-color="#85DCFF" offset="0%"></stop>
            <stop stop-color="#1880FE" offset="100%"></stop>
        </linearGradient>
        <path d="M22,15 C22.6627417,15 23.2,15.5372583 23.2,16.2 L23.2,20.5 L27.8,20.5 C28.4627417,20.5 29,21.0372583 29,21.7 C29,22.3627417 28.4627417,22.9 27.8,22.9 L23.2,22.9 L23.2,27.8 C23.2,28.4627417 22.6627417,29 22,29 C21.3372583,29 20.8,28.4627417 20.8,27.8 L20.8,22.9 L16.2,22.9 C15.5372583,22.9 15,22.3627417 15,21.7 C15,21.0372583 15.5372583,20.5 16.2,20.5 L20.8,20.5 L20.8,16.2 C20.8,15.5372583 21.3372583,15 22,15 Z" id="path-2"></path>
        <filter x="-35.7%" y="-28.6%" width="171.4%" height="171.4%" filterUnits="objectBoundingBox" id="filter-3">
            <feOffset dx="0" dy="1" in="SourceAlpha" result="shadowOffsetOuter1"></feOffset>
            <feGaussianBlur stdDeviation="1.5" in="shadowOffsetOuter1" result="shadowBlurOuter1"></feGaussianBlur>
            <feColorMatrix values="0 0 0 0 0.2352   0 0 0 0 0.57036   0 0 0 0 0.98  0 0 0 0.6 0" type="matrix" in="shadowBlurOuter1"></feColorMatrix>
        </filter>
    </defs>
    <g id="首页&amp;详情页" stroke="none" stroke-width="1" fill="none" fill-rule="evenodd">
        <g id="关注02" transform="translate(-166.000000, -620.000000)">
            <g id="BottomTab-Bar" transform="translate(0.000000, 617.000000)">
                <g id="ico_bottom_tab_publisher" transform="translate(166.000000, 3.000000)">
                    <rect id="矩形" fill="url(#linearGradient-1)" x="0" y="0" width="44" height="44" rx="22"></rect>
                    <g id="形状结合">
                        <use fill="black" fill-opacity="1" filter="url(#filter-3)" xlink:href="#path-2"></use>
                        <use fill="#FFFFFF" fill-rule="evenodd" xlink:href="#path-2"></use>
                    </g>
                </g>
            </g>
        </g>
    </g>
</svg>