<svg 
 xmlns="http://www.w3.org/2000/svg"
 xmlns:xlink="http://www.w3.org/1999/xlink"
 width="54px" height="43px">
<defs>
<linearGradient id="PSgrad_0" x1="0%" x2="0%" y1="100%" y2="0%">
  <stop offset="0%" stop-color="rgb(255,174,5)" stop-opacity="1" />
  <stop offset="100%" stop-color="rgb(255,198,19)" stop-opacity="1" />
</linearGradient>

</defs>
<path fill-rule="evenodd"  fill="rgb(255, 152, 5)"
 d="M43.60,40.145 L19.1,33.612 C16.763,33.5 15.435,30.673 16.34,28.404 L21.523,7.644 C22.123,5.376 24.424,4.30 26.662,4.637 L50.720,11.170 C52.959,11.778 54.287,14.110 53.687,16.379 L48.199,37.138 C47.599,39.407 45.298,40.753 43.60,40.145 Z"/>
<path fill-rule="evenodd"  fill="url(#PSgrad_0)"
 d="M43.758,42.958 L4.829,42.958 C2.527,42.958 0.661,41.92 0.661,38.790 L0.661,5.110 C0.661,2.808 2.527,0.942 4.829,0.942 L43.758,0.942 C46.61,0.942 47.927,2.808 47.927,5.110 L47.927,38.790 C47.927,41.92 46.61,42.958 43.758,42.958 Z"/>
<path fill-rule="evenodd"  fill="rgb(255, 255, 255)"
 d="M35.289,17.648 C32.967,17.648 31.84,15.791 31.84,13.501 C31.84,11.210 32.967,9.354 35.289,9.354 C37.611,9.354 39.494,11.210 39.494,13.501 C39.494,15.791 37.611,17.648 35.289,17.648 ZM29.802,31.429 L13.515,31.429 C11.383,31.429 10.112,29.82 11.300,27.334 L19.443,15.347 C20.499,13.792 22.818,13.792 23.874,15.347 L32.17,27.334 C33.204,29.82 31.935,31.429 29.802,31.429 Z"/>
</svg>
